<svg width="64" height="64" viewBox="0 0 64 64" fill="none" xmlns="http://www.w3.org/2000/svg">
<g clip-path="url(#clip0_2493_728)">
<path fill-rule="evenodd" clip-rule="evenodd" d="M38.5098 10.6247L33.4466 15.6954L7.92366 41.2685L4.67931 44.5189C4.40905 44.7897 4.40696 45.2309 4.67466 45.5044L13.8164 54.8452C14.0841 55.1187 14.5202 55.1209 14.7905 54.8502L18.0348 51.5997L43.5578 26.0267L48.621 20.956L38.5098 10.6247Z" fill="#F76565"/>
<path d="M48.621 20.956C48.621 20.956 54.3564 5.38713 54.1547 5.1811C53.9531 4.97507 38.5098 10.6247 38.5098 10.6247L48.621 20.956Z" fill="#F76565"/>
<path d="M48.621 20.956C48.621 20.956 54.3564 5.38713 54.1547 5.1811C53.9531 4.97507 38.5098 10.6247 38.5098 10.6247M48.621 20.956L43.5578 26.0267M48.621 20.956L38.5098 10.6247M38.5098 10.6247L33.4466 15.6954M43.5578 26.0267L33.4466 15.6954M43.5578 26.0267L18.0348 51.5997M33.4466 15.6954L7.92366 41.2685M7.92366 41.2685L4.67931 44.5189C4.40905 44.7897 4.40696 45.2309 4.67466 45.5044L13.8164 54.8452C14.0841 55.1187 14.5202 55.1209 14.7905 54.8502L18.0348 51.5997M7.92366 41.2685L18.0348 51.5997M47.6211 21.9556L37.51 11.6243" stroke="#462D2D" stroke-width="1.5"/>
<path d="M35.0694 21.2365L37.8405 24.0076C38.3284 24.4958 38.3286 25.2873 37.8405 25.7753L25.7099 37.9059C25.2219 38.394 24.4303 38.3938 23.9422 37.9059L21.1711 35.1348C20.6829 34.6467 20.6829 33.8552 21.1711 33.3671L33.3017 21.2365C33.7898 20.7483 34.5813 20.7483 35.0694 21.2365Z" fill="#E9E9E9" fill-opacity="0.83" stroke="#462D2D" stroke-width="0.5"/>
<path d="M15.3507 20.5181C15.3507 20.5181 1.10158 16.0645 0.899197 16.2654C0.696817 16.4663 5.20249 30.5913 5.20249 30.5913L15.3507 20.5181Z" fill="#BD65F7"/>
<path d="M33.8639 58.9921L44.0121 48.919L34.6167 39.4966L24.3636 49.7497L33.8639 58.9921Z" fill="#BD65F7"/>
<path d="M33.8639 58.9921L36.7608 61.8621C37.0021 62.1012 37.4156 62.0788 37.6843 61.8121L46.8595 52.7048C47.1282 52.4381 47.1504 52.0281 46.909 51.789L44.0121 48.919L33.8639 58.9921Z" fill="#BD65F7"/>
<path d="M18.6592 23.799L15.3507 20.5181L5.20249 30.5913L8.52591 33.887C9.01916 34.3756 9.14326 34.4795 9.14326 34.4795L19.2415 24.3813C19.2415 24.3813 19.1583 24.2935 18.6592 23.799Z" fill="#BD65F7"/>
<path d="M33.8639 58.9921L36.7608 61.8621C37.0021 62.1012 37.4156 62.0788 37.6843 61.8121L46.8595 52.7048C47.1282 52.4381 47.1504 52.0281 46.909 51.789L44.0121 48.919M33.8639 58.9921L44.0121 48.919M33.8639 58.9921L24.3636 49.7497L34.6167 39.4966L44.0121 48.919M15.3507 20.5181C15.3507 20.5181 1.10158 16.0645 0.899197 16.2654C0.696817 16.4663 5.20249 30.5913 5.20249 30.5913M15.3507 20.5181L18.6592 23.799C19.1583 24.2935 19.2415 24.3813 19.2415 24.3813L9.14326 34.4795C9.14326 34.4795 9.01916 34.3756 8.52591 33.887L5.20249 30.5913M15.3507 20.5181L5.20249 30.5913M15.8331 21.0014L5.68489 31.0745" stroke="#3A2D46" stroke-width="1.2"/>
<path d="M29.3329 6.53103C29.3329 6.53103 15.0292 2.02292 14.8269 2.2238C14.6245 2.42469 19.1846 16.6042 19.1846 16.6042L29.3329 6.53103Z" fill="#98D858"/>
<path d="M47.8443 45.0061L57.9925 34.933L48.5971 25.5105L38.3441 35.7636L47.8443 45.0061Z" fill="#98D858"/>
<path d="M47.8443 45.0061L50.7412 47.876C50.9825 48.1151 51.396 48.0927 51.6647 47.826L60.8399 38.7187C61.1086 38.452 61.1308 38.042 60.8895 37.8029L57.9925 34.933L47.8443 45.0061Z" fill="#98D858"/>
<path d="M32.6396 9.81295L29.3329 6.53103L19.1846 16.6042L22.5063 19.9009C22.9996 20.3896 23.1564 20.551 23.1564 20.551L33.2546 10.4527C33.2546 10.4527 33.1387 10.3074 32.6396 9.81295Z" fill="#98D858"/>
<path d="M47.8443 45.0061L50.7412 47.876C50.9825 48.1151 51.396 48.0927 51.6647 47.826L60.8399 38.7187C61.1086 38.452 61.1308 38.042 60.8895 37.8029L57.9925 34.933M47.8443 45.0061L57.9925 34.933M47.8443 45.0061L38.3441 35.7636L48.5971 25.5105L57.9925 34.933M29.3329 6.53103C29.3329 6.53103 15.0292 2.02292 14.8269 2.2238C14.6245 2.42469 19.1846 16.6042 19.1846 16.6042M29.3329 6.53103L32.6396 9.81295C33.1387 10.3074 33.2546 10.4527 33.2546 10.4527L23.1564 20.551C23.1564 20.551 22.9996 20.3896 22.5063 19.9009L19.1846 16.6042M29.3329 6.53103L19.1846 16.6042M29.7614 6.96045L19.6132 17.0336" stroke="#33452C" stroke-width="1.2"/>
</g>
<defs>
<clipPath id="clip0_2493_728">
<rect width="63.38" height="63.38" fill="white"/>
</clipPath>
</defs>
</svg>
