<svg width="64" height="64" viewBox="0 0 64 64" fill="none" xmlns="http://www.w3.org/2000/svg">
<g clip-path="url(#clip0_2494_1166)">
<path fill-rule="evenodd" clip-rule="evenodd" d="M38.5098 10.6252L33.4466 15.6959L7.92366 41.2689L4.67931 44.5194C4.40905 44.7902 4.40696 45.2314 4.67466 45.5049L13.8164 54.8457C14.0841 55.1192 14.5202 55.1214 14.7905 54.8506L18.0348 51.6002L43.5578 26.0272L48.621 20.9564L38.5098 10.6252Z" fill="#F76565"/>
<path d="M48.621 20.9564C48.621 20.9564 54.3564 5.38762 54.1547 5.18159C53.9531 4.97556 38.5098 10.6252 38.5098 10.6252L48.621 20.9564Z" fill="#F76565"/>
<path d="M48.621 20.9564C48.621 20.9564 54.3564 5.38762 54.1547 5.18159C53.9531 4.97556 38.5098 10.6252 38.5098 10.6252M48.621 20.9564L43.5578 26.0272M48.621 20.9564L38.5098 10.6252M38.5098 10.6252L33.4466 15.6959M43.5578 26.0272L33.4466 15.6959M43.5578 26.0272L18.0348 51.6002M33.4466 15.6959L7.92366 41.2689M7.92366 41.2689L4.67931 44.5194C4.40905 44.7902 4.40696 45.2314 4.67466 45.5049L13.8164 54.8457C14.0841 55.1192 14.5202 55.1214 14.7905 54.8506L18.0348 51.6002M7.92366 41.2689L18.0348 51.6002M47.6211 21.956L37.51 11.6248" stroke="#462D2D" stroke-width="1.5"/>
<path d="M35.0694 21.2369L37.8405 24.0081C38.3284 24.4962 38.3286 25.2878 37.8405 25.7758L25.7099 37.9064C25.2219 38.3945 24.4303 38.3943 23.9422 37.9064L21.1711 35.1353C20.6829 34.6472 20.6829 33.8557 21.1711 33.3676L33.3017 21.2369C33.7898 20.7488 34.5813 20.7488 35.0694 21.2369Z" fill="#E9E9E9" fill-opacity="0.83" stroke="#462D2D" stroke-width="0.5"/>
<path d="M15.9336 20.3014C15.9336 20.3014 1.42665 16.1056 1.21365 16.3171C1.00066 16.5286 5.25313 30.9068 5.25313 30.9068L15.9336 20.3014Z" fill="#BD65F7"/>
<path d="M34.0145 59.394L44.695 48.7886L35.2072 39.2723L24.4144 50.0652L34.0145 59.394Z" fill="#BD65F7"/>
<path d="M34.0145 59.394L36.9121 62.2632C37.1535 62.5022 37.5784 62.4684 37.8612 62.1876L47.5177 52.599C47.8005 52.3182 47.834 51.8968 47.5926 51.6578L44.695 48.7886L34.0145 59.394Z" fill="#BD65F7"/>
<path d="M19.2428 23.5816L15.9336 20.3014L5.25313 30.9068L8.57728 34.2018C9.07065 34.6904 9.19529 34.7937 9.19529 34.7937L19.8251 24.1639C19.8251 24.1639 19.742 24.0759 19.2428 23.5816Z" fill="#BD65F7"/>
<path d="M34.0145 59.394L36.9121 62.2632C37.1535 62.5022 37.5784 62.4684 37.8612 62.1876L47.5177 52.599C47.8005 52.3182 47.834 51.8968 47.5926 51.6578L44.695 48.7886M34.0145 59.394L44.695 48.7886M34.0145 59.394L24.4144 50.0652L35.2072 39.2723L44.695 48.7886M15.9336 20.3014C15.9336 20.3014 1.42665 16.1056 1.21365 16.3171C1.00066 16.5286 5.25313 30.9068 5.25313 30.9068M15.9336 20.3014L19.2428 23.5816C19.742 24.0759 19.8251 24.1639 19.8251 24.1639L9.19529 34.7937C9.19529 34.7937 9.07065 34.6904 8.57728 34.2018L5.25313 30.9068M15.9336 20.3014L5.25313 30.9068M16.416 20.7847L5.73551 31.3901" stroke="#3A2D46" stroke-width="1.2"/>
<path d="M30.5896 5.75379C30.5896 5.75379 16.0281 1.50352 15.8151 1.71501C15.6021 1.92651 19.9091 16.3592 19.9091 16.3592L30.5896 5.75379Z" fill="#98D858"/>
<path d="M48.6686 44.8474L59.3491 34.242L49.8613 24.7258L39.0685 35.5186L48.6686 44.8474Z" fill="#98D858"/>
<path d="M48.6686 44.8474L51.5663 47.7167C51.8077 47.9557 52.2326 47.9218 52.5154 47.6411L62.1719 38.0525C62.4546 37.7717 62.4882 37.3503 62.2468 37.1113L59.3491 34.242L48.6686 44.8474Z" fill="#98D858"/>
<path d="M33.897 9.03505L30.5896 5.75379L19.9091 16.3592L23.2314 19.6553C23.7248 20.1438 23.8815 20.3053 23.8815 20.3053L34.5113 9.6755C34.5113 9.6755 34.3962 9.52938 33.897 9.03505Z" fill="#98D858"/>
<path d="M48.6686 44.8474L51.5663 47.7167C51.8077 47.9557 52.2326 47.9218 52.5154 47.6411L62.1719 38.0525C62.4546 37.7717 62.4882 37.3503 62.2468 37.1113L59.3491 34.242M48.6686 44.8474L59.3491 34.242M48.6686 44.8474L39.0685 35.5186L49.8613 24.7258L59.3491 34.242M30.5896 5.75379C30.5896 5.75379 16.0281 1.50352 15.8151 1.71501C15.6021 1.92651 19.9091 16.3592 19.9091 16.3592M30.5896 5.75379L33.897 9.03505C34.3962 9.52938 34.5113 9.6755 34.5113 9.6755L23.8815 20.3053C23.8815 20.3053 23.7248 20.1438 23.2314 19.6553L19.9091 16.3592M30.5896 5.75379L19.9091 16.3592M31.0182 6.18323L20.3376 16.7886" stroke="#33452C" stroke-width="1.2"/>
</g>
<defs>
<clipPath id="clip0_2494_1166">
<rect width="63.38" height="63.38" fill="white"/>
</clipPath>
</defs>
</svg>
